<svg width="24" height="24" fill="none" xmlns="http://www.w3.org/2000/svg"><path d="M5.5 21a4.5 4.5 0 110-9.002A4.5 4.5 0 015.5 21zm0-2a2.5 2.5 0 100-5 2.5 2.5 0 000 5zm13 2a4.501 4.501 0 01-1.722-8.658 4.501 4.501 0 014.904 7.34A4.5 4.5 0 0118.5 21zm0-2a2.5 2.5 0 100-5 2.5 2.5 0 000 5zm-7.477-8.695L13 12v6h-2v-5l-2.719-2.266A2 2 0 018 7.671l2.828-2.828a2 2 0 012.829 0l1.414 1.414a6.969 6.969 0 003.917 1.975l-.01 2.015a8.962 8.962 0 01-5.321-2.575l-2.634 2.633zM16 5a2 2 0 110-4 2 2 0 010 4z" fill="#FFA800"/></svg>