<svg width="88" height="36" fill="none" xmlns="http://www.w3.org/2000/svg"><path d="M.048 24.228c.544-.432.792-.632.744-.6 1.568-1.296 2.8-2.36 3.696-3.192a15.097 15.097 0 002.304-2.616c.624-.912.936-1.8.936-2.664 0-.656-.152-1.168-.456-1.536-.304-.368-.76-.552-1.368-.552-.608 0-1.088.232-1.44.696-.336.448-.504 1.088-.504 1.92H0c.032-1.36.32-2.496.864-3.408.56-.912 1.288-1.584 2.184-2.016.912-.432 1.92-.648 3.024-.648 1.904 0 3.336.488 4.296 1.464.976.976 1.464 2.248 1.464 3.816 0 1.712-.584 3.304-1.752 4.776-1.168 1.456-2.656 2.88-4.464 4.272h6.48v3.336H.048v-3.048zm18.367-7.872a5.3 5.3 0 011.8-1.728 4.576 4.576 0 012.4-.648v4.344h-1.128c-1.024 0-1.792.224-2.304.672-.512.432-.768 1.2-.768 2.304v6.216H14.31V14.124h4.104v2.232zm8.225-3.624c-.72 0-1.311-.208-1.775-.624a2.116 2.116 0 01-.672-1.584c0-.64.224-1.168.672-1.584.464-.432 1.056-.648 1.776-.648.704 0 1.28.216 1.728.648.464.416.696.944.696 1.584 0 .624-.232 1.152-.696 1.584-.448.416-1.024.624-1.728.624zm2.04 1.392v13.392h-4.103V14.124h4.104zm8.423 13.584c-1.168 0-2.208-.2-3.12-.6-.912-.4-1.632-.944-2.16-1.632a4.386 4.386 0 01-.888-2.352h4.056c.048.464.264.84.648 1.128.384.288.856.432 1.416.432.512 0 .904-.096 1.176-.288.288-.208.432-.472.432-.792 0-.384-.2-.664-.6-.84-.4-.192-1.048-.4-1.944-.624-.96-.224-1.76-.456-2.4-.696a4.309 4.309 0 01-1.656-1.176c-.464-.544-.696-1.272-.696-2.184 0-.768.208-1.464.624-2.088.432-.64 1.056-1.144 1.872-1.512.832-.368 1.816-.552 2.952-.552 1.68 0 3 .416 3.96 1.248.976.832 1.536 1.936 1.68 3.312h-3.792a1.617 1.617 0 00-.624-1.104c-.336-.272-.784-.408-1.344-.408-.48 0-.848.096-1.104.288a.851.851 0 00-.384.744c0 .384.2.672.6.864.416.192 1.056.384 1.92.576.992.256 1.8.512 2.424.768.624.24 1.168.64 1.632 1.2.48.544.728 1.28.744 2.208 0 .784-.224 1.488-.672 2.112-.432.608-1.064 1.088-1.896 1.44-.816.352-1.768.528-2.856.528zM62.126 13.98c1.663 0 2.983.504 3.96 1.512.992 1.008 1.487 2.408 1.487 4.2v7.824h-4.08v-7.272c0-.864-.232-1.528-.696-1.992-.447-.48-1.072-.72-1.871-.72-.8 0-1.433.24-1.897.72-.448.464-.672 1.128-.672 1.992v7.272h-4.08v-7.272c0-.864-.232-1.528-.696-1.992-.448-.48-1.072-.72-1.872-.72s-1.431.24-1.896.72c-.448.464-.672 1.128-.672 1.992v7.272h-4.103V14.124h4.104v1.68c.415-.56.96-1 1.631-1.32.672-.336 1.432-.504 2.28-.504 1.009 0 1.905.216 2.689.648a4.625 4.625 0 011.872 1.848 5.395 5.395 0 011.896-1.8 5.123 5.123 0 012.616-.696z" fill="#fff"/><g clip-path="url(#clip0_13602_233)"><path d="M72.87 6.502c-.347-.116-.35-.303.007-.423l12.725-4.241c.353-.117.555.08.456.425l-3.636 12.724c-.1.353-.303.365-.453.03l-2.395-5.392 4-5.333-5.334 4-5.37-1.79z" fill="#5243C2"/></g><defs><clipPath id="clip0_13602_233"><path fill="#fff" transform="translate(71.573 .292)" d="M0 0h16v16H0z"/></clipPath></defs></svg>